<svg width="113" height="32" viewBox="0 0 113 32" fill="none" xmlns="http://www.w3.org/2000/svg">
<path fill-rule="evenodd" clip-rule="evenodd" d="M17 31.3671C26.3888 31.3671 34 24.3454 34 15.6836C34 7.02178 26.3888 0 17 0C7.61114 0 0 7.02178 0 15.6836C0 24.3454 7.61114 31.3671 17 31.3671ZM22.3034 7.30607C22.5616 6.46011 21.6717 5.95986 20.859 6.49402L9.51415 13.9502C8.63278 14.5295 8.77142 15.6836 9.7224 15.6836H12.7098V15.6622H18.5321L13.788 17.2065L11.6966 24.0611C11.4385 24.9071 12.3282 25.4073 13.141 24.8731L24.4859 17.417C25.3672 16.8377 25.2285 15.6836 24.2776 15.6836H19.7473L22.3034 7.30607Z" fill="#0260FF"/>
<path d="M42.256 26V9.2H54.52V11.816H45.376V23.384H54.856V26H42.256ZM45.136 18.752V16.184H53.488V18.752H45.136ZM58.3341 26V9.2H65.6781C67.5021 9.2 69.1021 9.552 70.4781 10.256C71.8541 10.96 72.9261 11.936 73.6941 13.184C74.4621 14.432 74.8461 15.904 74.8461 17.6C74.8461 19.28 74.4621 20.752 73.6941 22.016C72.9261 23.264 71.8541 24.24 70.4781 24.944C69.1021 25.648 67.5021 26 65.6781 26H58.3341ZM61.4541 23.36H65.5341C66.7821 23.36 67.8701 23.12 68.7981 22.64C69.7261 22.16 70.4381 21.488 70.9341 20.624C71.4461 19.76 71.7021 18.752 71.7021 17.6C71.7021 16.432 71.4461 15.424 70.9341 14.576C70.4381 13.712 69.7261 13.04 68.7981 12.56C67.8701 12.08 66.7821 11.84 65.5341 11.84H61.4541V23.36ZM85.3863 26.24C83.0823 26.24 81.2743 25.592 79.9623 24.296C78.6663 23 78.0183 21.128 78.0183 18.68V9.2H81.1383V18.56C81.1383 20.288 81.5063 21.544 82.2422 22.328C82.9943 23.112 84.0503 23.504 85.4103 23.504C86.7703 23.504 87.8183 23.112 88.5543 22.328C89.2903 21.544 89.6583 20.288 89.6583 18.56V9.2H92.7303V18.68C92.7303 21.128 92.0743 23 90.7623 24.296C89.4663 25.592 87.6743 26.24 85.3863 26.24ZM94.3722 26L101.932 9.2H105.004L112.588 26H109.324L102.82 10.856H104.068L97.5882 26H94.3722ZM97.8522 22.112L98.6922 19.664H107.764L108.604 22.112H97.8522Z" fill="white"/>
</svg>
